<?xml version="1.0" encoding="UTF-8"?>
<!-- Generator: Adobe Illustrator 16.0.0, SVG Export Plug-In . SVG Version: 6.00 Build 0)  -->
<!DOCTYPE svg PUBLIC "-//W3C//DTD SVG 1.1//EN" "http://www.w3.org/Graphics/SVG/1.1/DTD/svg11.dtd">
<svg version="1.1" id="Livello_1" xmlns="http://www.w3.org/2000/svg" xmlns:xlink="http://www.w3.org/1999/xlink" x="0px" y="0px" width="240px" height="50px" viewBox="0 0 240 50" enable-background="new 0 0 240 50" xml:space="preserve">
<g>
	<path fill="#FFFFFF" d="M10.043,47.951h4.822v0.795H0.912v-0.795h4.541V18.314H0.912v-0.796h16.151   c0.191,0.033,0.386,0.049,0.585,0.049c0.204,0,0.401,0.016,0.59,0.044c2.182,0.126,4.19,0.712,6.016,1.758   c1.828,1.046,2.738,2.897,2.738,5.548c0,2.621-0.92,4.449-2.763,5.476c-1.842,1.033-3.87,1.703-6.084,2.016   c-0.096,0-0.184,0.008-0.258,0.021c-0.08,0.018-0.164,0.027-0.258,0.027c1.932,0.281,3.418,0.637,4.447,1.074   c1.031,0.438,1.856,1.076,2.481,1.918c0.498,0.658,0.849,1.498,1.05,2.529c0.207,1.031,0.354,2.107,0.448,3.23   c0,0.16,0.008,0.314,0.027,0.469c0.012,0.156,0.035,0.314,0.066,0.469c0.127,1.594,0.336,2.998,0.631,4.213   c0.299,1.217,0.963,1.826,1.994,1.826h0.329c0.091,0,0.185-0.014,0.279-0.047c0.156,0,0.334-0.027,0.537-0.094   c0.201-0.063,0.459-0.141,0.773-0.232l0.282,0.609c-0.186,0.094-0.368,0.17-0.539,0.229c-0.174,0.066-0.352,0.096-0.537,0.096   c-0.407,0.127-0.819,0.213-1.241,0.258c-0.424,0.051-0.883,0.072-1.383,0.072c-1.966,0-3.392-0.453-4.283-1.359   c-0.89-0.904-1.461-2.494-1.713-4.773c-0.062-0.408-0.105-0.797-0.138-1.174c-0.03-0.375-0.078-0.748-0.139-1.123   c-0.344-2.9-0.984-4.922-1.92-6.061c-0.935-1.141-3.342-1.711-7.213-1.711l-1.824-0.045V47.951z M10.043,32.082   c0.594,0.027,1.215,0.035,1.875,0.021c0.652-0.016,1.311-0.057,1.963-0.115c2.06-0.156,3.959-0.691,5.689-1.596   c1.735-0.902,2.6-2.605,2.6-5.101c0-0.221-0.016-0.453-0.049-0.701c-0.029-0.249-0.06-0.5-0.092-0.753   c-0.125-0.526-0.291-1.06-0.492-1.591c-0.205-0.529-0.445-0.982-0.728-1.357c-0.776-1.029-1.778-1.708-2.995-2.037   c-1.212-0.328-3.259-0.49-6.134-0.49l-1.637-0.048V32.082z"/>
	<path fill="#FFFFFF" d="M65.105,47.951c2.713,0.033,4.773-0.078,6.18-0.324c1.404-0.25,2.59-0.703,3.558-1.359   c1.309-0.875,2.075-1.852,2.293-2.93c0.219-1.072,0.326-2.314,0.326-3.721l0.75-0.047v9.178H50.122v-0.797h4.539V18.314h-4.539   v-0.793h25.705l0.748,7.63h-0.748c-0.032-0.092-0.053-0.203-0.073-0.33c-0.015-0.121-0.039-0.248-0.07-0.373   c-0.283-1.498-0.599-2.567-0.959-3.207c-0.357-0.641-0.941-1.176-1.756-1.615c-0.779-0.438-1.826-0.756-3.136-0.961   c-1.309-0.201-3.059-0.3-5.245-0.3l-5.382-0.051v14.19h1.871c2.529,0.029,4.361-0.293,5.502-0.963   c1.138-0.672,1.709-1.721,1.709-3.16v-1.496h0.795v11.748h-0.795v-1.59c0-1.498-0.493-2.506-1.475-3.02   c-0.984-0.516-2.91-0.775-5.783-0.775h-1.824v14.703H65.105z"/>
	<path fill="#FFFFFF" d="M110.379,17.521v0.793h-4.541l8.428,23.928l7.253-19.48c0.252-0.592,0.447-1.162,0.589-1.709   c0.14-0.545,0.212-0.941,0.212-1.196c0-0.497-0.171-0.871-0.52-1.118c-0.342-0.25-0.826-0.374-1.449-0.374l-2.294-0.051v-0.793   h10.253v0.793h-2.243c-0.597,0.031-1.073,0.126-1.433,0.28c-0.357,0.162-0.691,0.502-1.006,1.031   c-0.154,0.283-0.32,0.618-0.492,1.008c-0.172,0.389-0.348,0.852-0.537,1.38l-10.439,27.86l-11.426-31.559h-4.123v-0.793H110.379z"/>
	<path fill="#FFFFFF" d="M160.428,47.951c2.717,0.033,4.775-0.078,6.18-0.324c1.406-0.25,2.596-0.703,3.563-1.359   c1.309-0.875,2.072-1.852,2.291-2.93c0.219-1.072,0.328-2.314,0.328-3.721l0.752-0.047v9.178h-28.092v-0.797h4.54V18.314h-4.54   v-0.793h25.706l0.743,7.63h-0.743c-0.038-0.092-0.06-0.203-0.073-0.33c-0.018-0.121-0.041-0.248-0.07-0.373   c-0.277-1.498-0.602-2.567-0.959-3.207c-0.363-0.641-0.943-1.176-1.756-1.615c-0.781-0.438-1.828-0.756-3.137-0.961   c-1.313-0.201-3.059-0.3-5.246-0.3l-5.384-0.051v14.19h1.873c2.528,0.029,4.358-0.293,5.5-0.963c1.14-0.672,1.711-1.721,1.711-3.16   v-1.496h0.796v11.748h-0.796v-1.59c0-1.498-0.493-2.506-1.474-3.02c-0.982-0.516-2.914-0.775-5.781-0.775h-1.829v14.703H160.428z"/>
	<path fill="#E20074" d="M171.25,1.192l0.73,0.392c-0.488,0.788-1.061,1.646-1.71,2.581c-0.655,0.934-1.423,1.802-2.298,2.604   c-0.879,0.807-1.879,1.469-3.002,1.988c-1.127,0.527-2.391,0.787-3.813,0.787c-2.131,0-3.771-0.504-4.931-1.51   c-1.163-1.01-1.741-2.227-1.741-3.646c0-0.486,0.078-0.979,0.227-1.486c0.146-0.504,0.383-0.962,0.697-1.373   c0.317-0.414,0.729-0.748,1.235-1.011c0.5-0.261,1.112-0.391,1.819-0.391c0.711,0,1.316,0.13,1.822,0.391   c0.51,0.263,0.912,0.579,1.205,0.956c0.303,0.373,0.523,0.794,0.674,1.26c0.152,0.467,0.227,0.887,0.227,1.264   c0,0.408-0.038,0.82-0.111,1.23c-0.074,0.412-0.207,0.783-0.393,1.123c0.15,0.187,0.412,0.373,0.787,0.561   c0.371,0.186,0.857,0.278,1.453,0.278c1.346,0,2.549-0.539,3.619-1.62C168.813,4.478,169.978,3.025,171.25,1.192"/>
	<path fill="#FFFFFF" d="M209.227,47.951c2.715,0.033,4.773-0.078,6.18-0.324c1.404-0.25,2.591-0.703,3.559-1.359   c1.309-0.875,2.075-1.852,2.289-2.93c0.221-1.072,0.332-2.314,0.332-3.721l0.75-0.047v9.178h-28.092v-0.797h4.541V18.314h-4.541   v-0.793h25.699l0.754,7.63h-0.754c-0.027-0.092-0.051-0.203-0.068-0.33c-0.012-0.121-0.037-0.248-0.068-0.373   c-0.279-1.498-0.603-2.567-0.961-3.207c-0.357-0.641-0.943-1.176-1.756-1.615c-0.777-0.438-1.824-0.756-3.134-0.961   c-1.315-0.201-3.063-0.3-5.245-0.3l-5.387-0.051v14.19h1.875c2.529,0.029,4.357-0.293,5.498-0.963   c1.141-0.672,1.711-1.721,1.711-3.16v-1.496h0.799v11.748h-0.799v-1.59c0-1.498-0.49-2.506-1.475-3.02   c-0.984-0.516-2.91-0.775-5.781-0.775h-1.828v14.703H209.227z"/>
	<path fill="#FFFFFF" d="M239.088,18.338c0,2.48-2.004,4.482-4.486,4.482c-2.484,0-4.484-2.002-4.484-4.482   c0-2.485,2-4.486,4.484-4.486C237.084,13.852,239.088,15.853,239.088,18.338 M230.572,18.338c0,2.266,1.752,4.088,4.043,4.088   s4.018-1.832,4.018-4.102c0-2.293-1.715-4.078-4.018-4.078C232.299,14.247,230.572,16.022,230.572,18.338 M232.973,15.686h1.988   c1.203,0,1.727,0.506,1.727,1.463c0,0.864-0.609,1.285-1.365,1.404l1.584,2.434H236.4l-1.598-2.445h-1.377v2.445h-0.453V15.686z    M233.426,18.145h1.129c0.803,0,1.68-0.084,1.68-1.008c0-0.816-0.711-1.055-1.346-1.055h-1.463V18.145z"/>
</g>
</svg>